<mxfile host="app.diagrams.net" modified="2023-08-06T07:10:13.769Z" agent="Mozilla/5.0 (Windows NT 10.0; Win64; x64) AppleWebKit/537.36 (KHTML, like Gecko) Chrome/115.0.0.0 Safari/537.36" etag="g2T-cJrSFmvegva1NOlN" version="21.3.5" type="github">
  <diagram name="第 1 页" id="9OSQlvmqz8tbQNN5Cx6f">
    <mxGraphModel dx="973" dy="567" grid="1" gridSize="10" guides="1" tooltips="1" connect="1" arrows="1" fold="1" page="1" pageScale="1" pageWidth="827" pageHeight="1169" math="0" shadow="0">
      <root>
        <mxCell id="0" />
        <mxCell id="1" parent="0" />
        <mxCell id="NIDjE-EhYZSAO3xe9EpV-18" value="" style="ellipse;whiteSpace=wrap;html=1;align=center;dashed=1;fillColor=none;" vertex="1" parent="1">
          <mxGeometry x="180" y="205" width="150" height="70" as="geometry" />
        </mxCell>
        <mxCell id="NIDjE-EhYZSAO3xe9EpV-20" value="" style="ellipse;whiteSpace=wrap;html=1;align=center;dashed=1;rotation=30;fillColor=none;" vertex="1" parent="1">
          <mxGeometry x="122.5" y="297.81" width="137.5" height="84.38" as="geometry" />
        </mxCell>
        <mxCell id="NIDjE-EhYZSAO3xe9EpV-19" value="" style="ellipse;whiteSpace=wrap;html=1;align=center;dashed=1;fillColor=none;" vertex="1" parent="1">
          <mxGeometry x="265" y="282.5" width="70" height="95" as="geometry" />
        </mxCell>
        <mxCell id="NIDjE-EhYZSAO3xe9EpV-1" value="" style="shape=waypoint;sketch=0;fillStyle=solid;size=6;pointerEvents=1;points=[];fillColor=none;resizable=0;rotatable=0;perimeter=centerPerimeter;snapToPoint=1;" vertex="1" parent="1">
          <mxGeometry x="260" y="210" width="20" height="20" as="geometry" />
        </mxCell>
        <mxCell id="NIDjE-EhYZSAO3xe9EpV-2" value="" style="shape=waypoint;sketch=0;fillStyle=solid;size=6;pointerEvents=1;points=[];fillColor=none;resizable=0;rotatable=0;perimeter=centerPerimeter;snapToPoint=1;" vertex="1" parent="1">
          <mxGeometry x="285" y="287.81" width="20" height="20" as="geometry" />
        </mxCell>
        <mxCell id="NIDjE-EhYZSAO3xe9EpV-3" value="" style="shape=waypoint;sketch=0;fillStyle=solid;size=6;pointerEvents=1;points=[];fillColor=none;resizable=0;rotatable=0;perimeter=centerPerimeter;snapToPoint=1;" vertex="1" parent="1">
          <mxGeometry x="275" y="350" width="20" height="20" as="geometry" />
        </mxCell>
        <mxCell id="NIDjE-EhYZSAO3xe9EpV-4" value="" style="shape=waypoint;sketch=0;fillStyle=solid;size=6;pointerEvents=1;points=[];fillColor=none;resizable=0;rotatable=0;perimeter=centerPerimeter;snapToPoint=1;" vertex="1" parent="1">
          <mxGeometry x="290" y="250" width="20" height="20" as="geometry" />
        </mxCell>
        <mxCell id="NIDjE-EhYZSAO3xe9EpV-5" value="" style="shape=waypoint;sketch=0;fillStyle=solid;size=6;pointerEvents=1;points=[];fillColor=none;resizable=0;rotatable=0;perimeter=centerPerimeter;snapToPoint=1;" vertex="1" parent="1">
          <mxGeometry x="305" y="290" width="20" height="20" as="geometry" />
        </mxCell>
        <mxCell id="NIDjE-EhYZSAO3xe9EpV-6" value="" style="shape=waypoint;sketch=0;fillStyle=solid;size=6;pointerEvents=1;points=[];fillColor=none;resizable=0;rotatable=0;perimeter=centerPerimeter;snapToPoint=1;" vertex="1" parent="1">
          <mxGeometry x="200" y="370" width="20" height="20" as="geometry" />
        </mxCell>
        <mxCell id="NIDjE-EhYZSAO3xe9EpV-7" value="" style="shape=waypoint;sketch=0;fillStyle=solid;size=6;pointerEvents=1;points=[];fillColor=none;resizable=0;rotatable=0;perimeter=centerPerimeter;snapToPoint=1;" vertex="1" parent="1">
          <mxGeometry x="180" y="297.81" width="20" height="20" as="geometry" />
        </mxCell>
        <mxCell id="NIDjE-EhYZSAO3xe9EpV-8" value="" style="shape=waypoint;sketch=0;fillStyle=solid;size=6;pointerEvents=1;points=[];fillColor=none;resizable=0;rotatable=0;perimeter=centerPerimeter;snapToPoint=1;" vertex="1" parent="1">
          <mxGeometry x="220" y="240" width="20" height="20" as="geometry" />
        </mxCell>
        <mxCell id="NIDjE-EhYZSAO3xe9EpV-9" value="" style="shape=waypoint;sketch=0;fillStyle=solid;size=6;pointerEvents=1;points=[];fillColor=none;resizable=0;rotatable=0;perimeter=centerPerimeter;snapToPoint=1;" vertex="1" parent="1">
          <mxGeometry x="190" y="220" width="20" height="20" as="geometry" />
        </mxCell>
        <mxCell id="NIDjE-EhYZSAO3xe9EpV-10" value="" style="shape=waypoint;sketch=0;fillStyle=solid;size=6;pointerEvents=1;points=[];fillColor=none;resizable=0;rotatable=0;perimeter=centerPerimeter;snapToPoint=1;" vertex="1" parent="1">
          <mxGeometry x="160" y="340" width="20" height="20" as="geometry" />
        </mxCell>
        <mxCell id="NIDjE-EhYZSAO3xe9EpV-11" value="" style="shape=waypoint;sketch=0;fillStyle=solid;size=6;pointerEvents=1;points=[];fillColor=none;resizable=0;rotatable=0;perimeter=centerPerimeter;snapToPoint=1;" vertex="1" parent="1">
          <mxGeometry x="130" y="300" width="20" height="20" as="geometry" />
        </mxCell>
        <mxCell id="NIDjE-EhYZSAO3xe9EpV-12" value="" style="shape=waypoint;sketch=0;fillStyle=solid;size=6;pointerEvents=1;points=[];fillColor=none;resizable=0;rotatable=0;perimeter=centerPerimeter;snapToPoint=1;" vertex="1" parent="1">
          <mxGeometry x="184" y="327.81" width="20" height="20" as="geometry" />
        </mxCell>
        <mxCell id="NIDjE-EhYZSAO3xe9EpV-13" value="" style="shape=waypoint;sketch=0;fillStyle=solid;size=6;pointerEvents=1;points=[];fillColor=none;resizable=0;rotatable=0;perimeter=centerPerimeter;snapToPoint=1;" vertex="1" parent="1">
          <mxGeometry x="270" y="230" width="20" height="20" as="geometry" />
        </mxCell>
        <mxCell id="NIDjE-EhYZSAO3xe9EpV-14" value="" style="shape=waypoint;sketch=0;fillStyle=solid;size=6;pointerEvents=1;points=[];fillColor=none;resizable=0;rotatable=0;perimeter=centerPerimeter;snapToPoint=1;" vertex="1" parent="1">
          <mxGeometry x="295" y="320" width="20" height="20" as="geometry" />
        </mxCell>
        <mxCell id="NIDjE-EhYZSAO3xe9EpV-16" value="" style="shape=waypoint;sketch=0;fillStyle=solid;size=6;pointerEvents=1;points=[];fillColor=none;resizable=0;rotatable=0;perimeter=centerPerimeter;snapToPoint=1;" vertex="1" parent="1">
          <mxGeometry x="230" y="330" width="20" height="20" as="geometry" />
        </mxCell>
        <mxCell id="NIDjE-EhYZSAO3xe9EpV-17" value="" style="verticalLabelPosition=bottom;verticalAlign=top;html=1;shape=mxgraph.basic.star;fillColor=#d5e8d4;strokeColor=#82b366;" vertex="1" parent="1">
          <mxGeometry x="240" y="290" width="10" height="10" as="geometry" />
        </mxCell>
        <mxCell id="NIDjE-EhYZSAO3xe9EpV-21" value="C&lt;sub&gt;1&lt;/sub&gt;" style="rounded=0;whiteSpace=wrap;html=1;fillColor=none;strokeColor=none;fontFamily=Times New Roman;" vertex="1" parent="1">
          <mxGeometry x="204" y="220" width="16" height="20" as="geometry" />
        </mxCell>
        <mxCell id="NIDjE-EhYZSAO3xe9EpV-22" value="C&lt;span style=&quot;font-size: 10px;&quot;&gt;&lt;sub&gt;6&lt;/sub&gt;&lt;/span&gt;" style="rounded=0;whiteSpace=wrap;html=1;fillColor=none;strokeColor=none;fontFamily=Times New Roman;" vertex="1" parent="1">
          <mxGeometry x="280" y="297.81" width="16" height="20" as="geometry" />
        </mxCell>
        <mxCell id="NIDjE-EhYZSAO3xe9EpV-23" value="C&lt;span style=&quot;font-size: 10px;&quot;&gt;&lt;sub&gt;3&lt;/sub&gt;&lt;/span&gt;" style="rounded=0;whiteSpace=wrap;html=1;fillColor=none;strokeColor=none;fontFamily=Times New Roman;" vertex="1" parent="1">
          <mxGeometry x="257" y="230" width="20" height="20" as="geometry" />
        </mxCell>
        <mxCell id="NIDjE-EhYZSAO3xe9EpV-24" value="C&lt;span style=&quot;font-size: 10px;&quot;&gt;&lt;sub&gt;4&lt;/sub&gt;&lt;/span&gt;" style="rounded=0;whiteSpace=wrap;html=1;fillColor=none;strokeColor=none;fontFamily=Times New Roman;" vertex="1" parent="1">
          <mxGeometry x="210" y="240" width="16" height="20" as="geometry" />
        </mxCell>
        <mxCell id="NIDjE-EhYZSAO3xe9EpV-26" value="C&lt;span style=&quot;font-size: 10px;&quot;&gt;&lt;sub&gt;5&lt;/sub&gt;&lt;/span&gt;" style="rounded=0;whiteSpace=wrap;html=1;fillColor=none;strokeColor=none;fontFamily=Times New Roman;" vertex="1" parent="1">
          <mxGeometry x="277" y="250" width="16" height="20" as="geometry" />
        </mxCell>
        <mxCell id="NIDjE-EhYZSAO3xe9EpV-27" value="C&lt;span style=&quot;font-size: 10px;&quot;&gt;&lt;sub&gt;2&lt;/sub&gt;&lt;/span&gt;" style="rounded=0;whiteSpace=wrap;html=1;fillColor=none;strokeColor=none;fontFamily=Times New Roman;" vertex="1" parent="1">
          <mxGeometry x="252" y="205" width="16" height="20" as="geometry" />
        </mxCell>
        <mxCell id="NIDjE-EhYZSAO3xe9EpV-35" value="C&lt;span style=&quot;font-size: 8.33333px;&quot;&gt;&lt;sub&gt;13&lt;/sub&gt;&lt;/span&gt;" style="rounded=0;whiteSpace=wrap;html=1;fillColor=none;strokeColor=none;fontFamily=Times New Roman;" vertex="1" parent="1">
          <mxGeometry x="200" y="330" width="20" height="20" as="geometry" />
        </mxCell>
        <mxCell id="NIDjE-EhYZSAO3xe9EpV-36" value="C&lt;span style=&quot;font-size: 8.33333px;&quot;&gt;&lt;sub&gt;9&lt;/sub&gt;&lt;/span&gt;" style="rounded=0;whiteSpace=wrap;html=1;fillColor=none;strokeColor=none;fontFamily=Times New Roman;" vertex="1" parent="1">
          <mxGeometry x="290" y="350" width="20" height="20" as="geometry" />
        </mxCell>
        <mxCell id="NIDjE-EhYZSAO3xe9EpV-37" value="C&lt;span style=&quot;font-size: 8.33333px;&quot;&gt;&lt;sub&gt;8&lt;/sub&gt;&lt;/span&gt;" style="rounded=0;whiteSpace=wrap;html=1;fillColor=none;strokeColor=none;fontFamily=Times New Roman;" vertex="1" parent="1">
          <mxGeometry x="305" y="330" width="20" height="20" as="geometry" />
        </mxCell>
        <mxCell id="NIDjE-EhYZSAO3xe9EpV-38" value="C&lt;span style=&quot;font-size: 10px;&quot;&gt;&lt;sub&gt;7&lt;/sub&gt;&lt;/span&gt;" style="rounded=0;whiteSpace=wrap;html=1;fillColor=none;strokeColor=none;fontFamily=Times New Roman;" vertex="1" parent="1">
          <mxGeometry x="310" y="300" width="20" height="20" as="geometry" />
        </mxCell>
        <mxCell id="NIDjE-EhYZSAO3xe9EpV-40" value="C&lt;span style=&quot;font-size: 8.33333px;&quot;&gt;&lt;sub&gt;12&lt;/sub&gt;&lt;/span&gt;" style="rounded=0;whiteSpace=wrap;html=1;fillColor=none;strokeColor=none;fontFamily=Times New Roman;" vertex="1" parent="1">
          <mxGeometry x="160" y="350" width="20" height="20" as="geometry" />
        </mxCell>
        <mxCell id="NIDjE-EhYZSAO3xe9EpV-41" value="C&lt;span style=&quot;font-size: 8.33333px;&quot;&gt;&lt;sub&gt;11&lt;/sub&gt;&lt;/span&gt;" style="rounded=0;whiteSpace=wrap;html=1;fillColor=none;strokeColor=none;fontFamily=Times New Roman;" vertex="1" parent="1">
          <mxGeometry x="210" y="362.19" width="20" height="20" as="geometry" />
        </mxCell>
        <mxCell id="NIDjE-EhYZSAO3xe9EpV-42" value="C&lt;span style=&quot;font-size: 8.33333px;&quot;&gt;&lt;sub&gt;10&lt;/sub&gt;&lt;/span&gt;" style="rounded=0;whiteSpace=wrap;html=1;fillColor=none;strokeColor=none;fontFamily=Times New Roman;" vertex="1" parent="1">
          <mxGeometry x="230" y="340" width="20" height="20" as="geometry" />
        </mxCell>
        <mxCell id="NIDjE-EhYZSAO3xe9EpV-45" value="C&lt;sub&gt;15&lt;br&gt;&lt;/sub&gt;" style="rounded=0;whiteSpace=wrap;html=1;fillColor=none;strokeColor=none;fontFamily=Times New Roman;" vertex="1" parent="1">
          <mxGeometry x="134" y="310" width="16" height="20" as="geometry" />
        </mxCell>
        <mxCell id="NIDjE-EhYZSAO3xe9EpV-46" value="C&lt;sub&gt;14&lt;/sub&gt;" style="rounded=0;whiteSpace=wrap;html=1;fillColor=none;strokeColor=none;fontFamily=Times New Roman;" vertex="1" parent="1">
          <mxGeometry x="180" y="307.81" width="16" height="20" as="geometry" />
        </mxCell>
      </root>
    </mxGraphModel>
  </diagram>
</mxfile>
